<?xml version="1.0" encoding="UTF-8"?>
<svg xmlns="http://www.w3.org/2000/svg" xmlns:xlink="http://www.w3.org/1999/xlink" width="52pt" height="52pt" viewBox="0 0 52 52" version="1.1">
<g id="surface7687277">
<path style=" stroke:none;fill-rule:nonzero;fill:rgb(100%,100%,100%);fill-opacity:1;" d="M 40 4.0625 C 38.898438 4.0625 38 4.960938 38 6.0625 L 38 15.625 L 27.4375 5.0625 C 26.65625 4.28125 25.34375 4.28125 24.5625 5.0625 L 1.125 28.5625 C 0.34375 29.34375 0.34375 30.59375 1.125 31.375 C 1.90625 32.15625 3.15625 32.15625 3.9375 31.375 L 26 9.3125 L 48.125 31.4375 C 48.515625 31.828125 49.046875 32.0625 49.5625 32.0625 C 50.078125 32.0625 50.546875 31.828125 50.9375 31.4375 C 51.71875 30.65625 51.71875 29.40625 50.9375 28.625 L 44 21.6875 L 44 6.0625 C 44 4.960938 43.101562 4.0625 42 4.0625 Z M 26 13 L 4 35 L 4 46 C 4 49.3125 6.6875 52 10 52 L 42 52 C 45.3125 52 48 49.3125 48 46 L 48 35 Z M 22 32 L 30 32 C 31.101562 32 32 32.898438 32 34 L 32 46 C 32 47.101562 31.101562 48 30 48 L 22 48 C 20.898438 48 20 47.101562 20 46 L 20 34 C 20 32.898438 20.898438 32 22 32 Z M 22 32 "/>
</g>
</svg>
